<?xml version="1.0" encoding="UTF-8" standalone="no"?>
<!DOCTYPE svg PUBLIC "-//W3C//DTD SVG 1.1//EN"
 "http://www.w3.org/Graphics/SVG/1.1/DTD/svg11.dtd">
<!-- Generated by graphviz version 2.47.0 (20210316.0004)
 -->
<!-- Title: dependencies Pages: 1 -->
<svg width="2547pt" height="284pt"
 viewBox="0.00 0.00 2547.00 284.00" xmlns="http://www.w3.org/2000/svg" xmlns:xlink="http://www.w3.org/1999/xlink">
<g id="graph0" class="graph" transform="scale(1 1) rotate(0) translate(4 280)">
<title>dependencies</title>
<polygon fill="white" stroke="transparent" points="-4,4 -4,-280 2543,-280 2543,4 -4,4"/>
<text text-anchor="start" x="1248.51" y="-42.4" font-family="sans-serif" font-weight="bold" font-size="14.00">Legend</text>
<polygon fill="#ffffb3" stroke="transparent" points="1035.5,-10 1035.5,-30 1055.5,-30 1055.5,-10 1035.5,-10"/>
<text text-anchor="start" x="1059.13" y="-15.4" font-family="sans-serif" font-size="14.00"> &#160;Declarations</text>
<polygon fill="#8dd3c7" stroke="transparent" points="1148.5,-10 1148.5,-30 1168.5,-30 1168.5,-10 1148.5,-10"/>
<text text-anchor="start" x="1172.23" y="-15.4" font-family="sans-serif" font-size="14.00"> &#160;Module</text>
<polygon fill="#80b1d3" stroke="transparent" points="1234.5,-10 1234.5,-30 1254.5,-30 1254.5,-10 1234.5,-10"/>
<text text-anchor="start" x="1258.28" y="-15.4" font-family="sans-serif" font-size="14.00"> &#160;Bootstrap</text>
<polygon fill="#fdb462" stroke="transparent" points="1331.5,-10 1331.5,-30 1351.5,-30 1351.5,-10 1331.5,-10"/>
<text text-anchor="start" x="1355.17" y="-15.4" font-family="sans-serif" font-size="14.00"> &#160;Providers</text>
<polygon fill="#fb8072" stroke="transparent" points="1427.5,-10 1427.5,-30 1447.5,-30 1447.5,-10 1427.5,-10"/>
<text text-anchor="start" x="1451.23" y="-15.4" font-family="sans-serif" font-size="14.00"> &#160;Exports</text>
<g id="clust1" class="cluster">
<title>cluster_AppModule</title>
<polygon fill="none" stroke="black" stroke-dasharray="1,5" points="8,-70 8,-268 2531,-268 2531,-70 8,-70"/>
</g>
<g id="clust14" class="cluster">
<title>cluster_AppModule_imports</title>
<polygon fill="none" stroke="black" points="2379,-78 2379,-130 2523,-130 2523,-78 2379,-78"/>
</g>
<g id="clust16" class="cluster">
<title>cluster_AppModule_bootstrap</title>
<polygon fill="none" stroke="black" points="1217,-208 1217,-260 1341,-260 1341,-208 1217,-208"/>
</g>
<g id="clust2" class="cluster">
<title>cluster_AppModule_declarations</title>
<polygon fill="none" stroke="black" points="332,-78 332,-130 2371,-130 2371,-78 332,-78"/>
</g>
<g id="clust17" class="cluster">
<title>cluster_AppModule_providers</title>
<polygon fill="none" stroke="black" points="16,-78 16,-130 324,-130 324,-78 16,-78"/>
</g>
<!-- AppComponent -->
<g id="node1" class="node">
<title>AppComponent</title>
<polygon fill="#ffffb3" stroke="black" points="2362.94,-122 2257.06,-122 2257.06,-86 2362.94,-86 2362.94,-122"/>
<text text-anchor="middle" x="2310" y="-99.8" font-family="Times,serif" font-size="14.00">AppComponent</text>
</g>
<!-- AppModule -->
<g id="node12" class="node">
<title>AppModule</title>
<polygon fill="#8dd3c7" stroke="black" points="1320.66,-187 1317.66,-191 1296.66,-191 1293.66,-187 1237.34,-187 1237.34,-151 1320.66,-151 1320.66,-187"/>
<text text-anchor="middle" x="1279" y="-164.8" font-family="Times,serif" font-size="14.00">AppModule</text>
</g>
<!-- AppComponent&#45;&gt;AppModule -->
<g id="edge1" class="edge">
<title>AppComponent&#45;&gt;AppModule</title>
<path fill="none" stroke="black" d="M2310,-122.04C2310,-143.66 2310,-177 2310,-177 2310,-177 1330.69,-177 1330.69,-177"/>
<polygon fill="black" stroke="black" points="1330.69,-173.5 1320.69,-177 1330.69,-180.5 1330.69,-173.5"/>
</g>
<!-- ArticlesTestFormComponent -->
<g id="node2" class="node">
<title>ArticlesTestFormComponent</title>
<polygon fill="#ffffb3" stroke="black" points="2239.08,-122 2058.92,-122 2058.92,-86 2239.08,-86 2239.08,-122"/>
<text text-anchor="middle" x="2149" y="-99.8" font-family="Times,serif" font-size="14.00">ArticlesTestFormComponent</text>
</g>
<!-- ArticlesTestFormComponent&#45;&gt;AppModule -->
<g id="edge2" class="edge">
<title>ArticlesTestFormComponent&#45;&gt;AppModule</title>
<path fill="none" stroke="black" d="M2149,-122.22C2149,-142.37 2149,-172 2149,-172 2149,-172 1330.67,-172 1330.67,-172"/>
<polygon fill="black" stroke="black" points="1330.67,-168.5 1320.67,-172 1330.67,-175.5 1330.67,-168.5"/>
</g>
<!-- EntryFormComponent -->
<g id="node3" class="node">
<title>EntryFormComponent</title>
<polygon fill="#ffffb3" stroke="black" points="2041.27,-122 1898.73,-122 1898.73,-86 2041.27,-86 2041.27,-122"/>
<text text-anchor="middle" x="1970" y="-99.8" font-family="Times,serif" font-size="14.00">EntryFormComponent</text>
</g>
<!-- EntryFormComponent&#45;&gt;AppModule -->
<g id="edge3" class="edge">
<title>EntryFormComponent&#45;&gt;AppModule</title>
<path fill="none" stroke="black" d="M1970,-122.22C1970,-140.83 1970,-167 1970,-167 1970,-167 1330.67,-167 1330.67,-167"/>
<polygon fill="black" stroke="black" points="1330.67,-163.5 1320.67,-167 1330.67,-170.5 1330.67,-163.5"/>
</g>
<!-- FutureSimpleTestFormComponent -->
<g id="node4" class="node">
<title>FutureSimpleTestFormComponent</title>
<polygon fill="#ffffb3" stroke="black" points="1880.99,-122 1669.01,-122 1669.01,-86 1880.99,-86 1880.99,-122"/>
<text text-anchor="middle" x="1775" y="-99.8" font-family="Times,serif" font-size="14.00">FutureSimpleTestFormComponent</text>
</g>
<!-- FutureSimpleTestFormComponent&#45;&gt;AppModule -->
<g id="edge4" class="edge">
<title>FutureSimpleTestFormComponent&#45;&gt;AppModule</title>
<path fill="none" stroke="black" d="M1775,-122.03C1775,-139.06 1775,-162 1775,-162 1775,-162 1330.86,-162 1330.86,-162"/>
<polygon fill="black" stroke="black" points="1330.86,-158.5 1320.86,-162 1330.86,-165.5 1330.86,-158.5"/>
</g>
<!-- MainFormComponent -->
<g id="node5" class="node">
<title>MainFormComponent</title>
<polygon fill="#ffffb3" stroke="black" points="1650.72,-122 1509.28,-122 1509.28,-86 1650.72,-86 1650.72,-122"/>
<text text-anchor="middle" x="1580" y="-99.8" font-family="Times,serif" font-size="14.00">MainFormComponent</text>
</g>
<!-- MainFormComponent&#45;&gt;AppModule -->
<g id="edge5" class="edge">
<title>MainFormComponent&#45;&gt;AppModule</title>
<path fill="none" stroke="black" d="M1580,-122.24C1580,-137.57 1580,-157 1580,-157 1580,-157 1330.85,-157 1330.85,-157"/>
<polygon fill="black" stroke="black" points="1330.85,-153.5 1320.85,-157 1330.85,-160.5 1330.85,-153.5"/>
</g>
<!-- PastSimpleTestFormComponent -->
<g id="node6" class="node">
<title>PastSimpleTestFormComponent</title>
<polygon fill="#ffffb3" stroke="black" points="1491.27,-122 1292.73,-122 1292.73,-86 1491.27,-86 1491.27,-122"/>
<text text-anchor="middle" x="1392" y="-99.8" font-family="Times,serif" font-size="14.00">PastSimpleTestFormComponent</text>
</g>
<!-- PastSimpleTestFormComponent&#45;&gt;AppModule -->
<g id="edge6" class="edge">
<title>PastSimpleTestFormComponent&#45;&gt;AppModule</title>
<path fill="none" stroke="black" d="M1306.72,-122.11C1306.72,-122.11 1306.72,-140.99 1306.72,-140.99"/>
<polygon fill="black" stroke="black" points="1303.22,-140.99 1306.72,-150.99 1310.22,-140.99 1303.22,-140.99"/>
</g>
<!-- PresentSimpleTestFormComponent -->
<g id="node7" class="node">
<title>PresentSimpleTestFormComponent</title>
<polygon fill="#ffffb3" stroke="black" points="1274.15,-122 1057.85,-122 1057.85,-86 1274.15,-86 1274.15,-122"/>
<text text-anchor="middle" x="1166" y="-99.8" font-family="Times,serif" font-size="14.00">PresentSimpleTestFormComponent</text>
</g>
<!-- PresentSimpleTestFormComponent&#45;&gt;AppModule -->
<g id="edge7" class="edge">
<title>PresentSimpleTestFormComponent&#45;&gt;AppModule</title>
<path fill="none" stroke="black" d="M1255.75,-122.11C1255.75,-122.11 1255.75,-140.99 1255.75,-140.99"/>
<polygon fill="black" stroke="black" points="1252.25,-140.99 1255.75,-150.99 1259.25,-140.99 1252.25,-140.99"/>
</g>
<!-- RegisterFormComponent -->
<g id="node8" class="node">
<title>RegisterFormComponent</title>
<polygon fill="#ffffb3" stroke="black" points="1040.32,-122 881.68,-122 881.68,-86 1040.32,-86 1040.32,-122"/>
<text text-anchor="middle" x="961" y="-99.8" font-family="Times,serif" font-size="14.00">RegisterFormComponent</text>
</g>
<!-- RegisterFormComponent&#45;&gt;AppModule -->
<g id="edge8" class="edge">
<title>RegisterFormComponent&#45;&gt;AppModule</title>
<path fill="none" stroke="black" d="M961,-122.24C961,-137.57 961,-157 961,-157 961,-157 1227.1,-157 1227.1,-157"/>
<polygon fill="black" stroke="black" points="1227.1,-160.5 1237.1,-157 1227.1,-153.5 1227.1,-160.5"/>
</g>
<!-- TestLayoutComponent -->
<g id="node9" class="node">
<title>TestLayoutComponent</title>
<polygon fill="#ffffb3" stroke="black" points="863.59,-122 718.41,-122 718.41,-86 863.59,-86 863.59,-122"/>
<text text-anchor="middle" x="791" y="-99.8" font-family="Times,serif" font-size="14.00">TestLayoutComponent</text>
</g>
<!-- TestLayoutComponent&#45;&gt;AppModule -->
<g id="edge9" class="edge">
<title>TestLayoutComponent&#45;&gt;AppModule</title>
<path fill="none" stroke="black" d="M791,-122.03C791,-139.06 791,-162 791,-162 791,-162 1226.97,-162 1226.97,-162"/>
<polygon fill="black" stroke="black" points="1226.97,-165.5 1236.97,-162 1226.97,-158.5 1226.97,-165.5"/>
</g>
<!-- TestsFormComponent -->
<g id="node10" class="node">
<title>TestsFormComponent</title>
<polygon fill="#ffffb3" stroke="black" points="700.71,-122 559.29,-122 559.29,-86 700.71,-86 700.71,-122"/>
<text text-anchor="middle" x="630" y="-99.8" font-family="Times,serif" font-size="14.00">TestsFormComponent</text>
</g>
<!-- TestsFormComponent&#45;&gt;AppModule -->
<g id="edge10" class="edge">
<title>TestsFormComponent&#45;&gt;AppModule</title>
<path fill="none" stroke="black" d="M630,-122.22C630,-140.83 630,-167 630,-167 630,-167 1226.92,-167 1226.92,-167"/>
<polygon fill="black" stroke="black" points="1226.92,-170.5 1236.92,-167 1226.92,-163.5 1226.92,-170.5"/>
</g>
<!-- VocabularyTestFormComponent -->
<g id="node11" class="node">
<title>VocabularyTestFormComponent</title>
<polygon fill="#ffffb3" stroke="black" points="541.57,-122 340.43,-122 340.43,-86 541.57,-86 541.57,-122"/>
<text text-anchor="middle" x="441" y="-99.8" font-family="Times,serif" font-size="14.00">VocabularyTestFormComponent</text>
</g>
<!-- VocabularyTestFormComponent&#45;&gt;AppModule -->
<g id="edge11" class="edge">
<title>VocabularyTestFormComponent&#45;&gt;AppModule</title>
<path fill="none" stroke="black" d="M441,-122.22C441,-142.37 441,-172 441,-172 441,-172 1227.16,-172 1227.16,-172"/>
<polygon fill="black" stroke="black" points="1227.16,-175.5 1237.16,-172 1227.16,-168.5 1227.16,-175.5"/>
</g>
<!-- AppComponent  -->
<g id="node14" class="node">
<title>AppComponent </title>
<polygon fill="#80b1d3" stroke="black" points="1333.44,-252 1224.56,-252 1224.56,-216 1333.44,-216 1333.44,-252"/>
<text text-anchor="middle" x="1279" y="-229.8" font-family="Times,serif" font-size="14.00">AppComponent </text>
</g>
<!-- AppModule&#45;&gt;AppComponent  -->
<g id="edge13" class="edge">
<title>AppModule&#45;&gt;AppComponent </title>
<path fill="none" stroke="black" stroke-dasharray="1,5" d="M1279,-187.11C1279,-187.11 1279,-205.99 1279,-205.99"/>
<polygon fill="black" stroke="black" points="1275.5,-205.99 1279,-215.99 1282.5,-205.99 1275.5,-205.99"/>
</g>
<!-- AppRoutingModule -->
<g id="node13" class="node">
<title>AppRoutingModule</title>
<polygon fill="#8dd3c7" stroke="black" points="2515.27,-122 2512.27,-126 2491.27,-126 2488.27,-122 2386.73,-122 2386.73,-86 2515.27,-86 2515.27,-122"/>
<text text-anchor="middle" x="2451" y="-99.8" font-family="Times,serif" font-size="14.00">AppRoutingModule</text>
</g>
<!-- AppRoutingModule&#45;&gt;AppModule -->
<g id="edge12" class="edge">
<title>AppRoutingModule&#45;&gt;AppModule</title>
<path fill="none" stroke="black" d="M2451,-122.09C2451,-145.13 2451,-182 2451,-182 2451,-182 1330.71,-182 1330.71,-182"/>
<polygon fill="black" stroke="black" points="1330.71,-178.5 1320.71,-182 1330.71,-185.5 1330.71,-178.5"/>
</g>
<!-- AuthService -->
<g id="node15" class="node">
<title>AuthService</title>
<ellipse fill="#fdb462" stroke="black" cx="257" cy="-104" rx="59.11" ry="18"/>
<text text-anchor="middle" x="257" y="-99.8" font-family="Times,serif" font-size="14.00">AuthService</text>
</g>
<!-- AuthService&#45;&gt;AppModule -->
<g id="edge14" class="edge">
<title>AuthService&#45;&gt;AppModule</title>
<path fill="none" stroke="black" d="M257,-122.04C257,-143.66 257,-177 257,-177 257,-177 1227.03,-177 1227.03,-177"/>
<polygon fill="black" stroke="black" points="1227.03,-180.5 1237.03,-177 1227.03,-173.5 1227.03,-180.5"/>
</g>
<!-- TokenInterceptor -->
<g id="node16" class="node">
<title>TokenInterceptor</title>
<ellipse fill="#fdb462" stroke="black" cx="102" cy="-104" rx="78.13" ry="18"/>
<text text-anchor="middle" x="102" y="-99.8" font-family="Times,serif" font-size="14.00">TokenInterceptor</text>
</g>
<!-- TokenInterceptor&#45;&gt;AppModule -->
<g id="edge15" class="edge">
<title>TokenInterceptor&#45;&gt;AppModule</title>
<path fill="none" stroke="black" d="M102,-122.09C102,-145.13 102,-182 102,-182 102,-182 1227.11,-182 1227.11,-182"/>
<polygon fill="black" stroke="black" points="1227.11,-185.5 1237.11,-182 1227.11,-178.5 1227.11,-185.5"/>
</g>
</g>
</svg>
