<?xml version="1.0" encoding="UTF-8" standalone="no"?>
<!DOCTYPE svg PUBLIC "-//W3C//DTD SVG 1.1//EN"
 "http://www.w3.org/Graphics/SVG/1.1/DTD/svg11.dtd">
<!-- Generated by graphviz version 2.47.0 (20210316.0004)
 -->
<!-- Title: dependencies Pages: 1 -->
<svg width="504pt" height="211pt"
 viewBox="0.00 0.00 504.00 211.00" xmlns="http://www.w3.org/2000/svg" xmlns:xlink="http://www.w3.org/1999/xlink">
<g id="graph0" class="graph" transform="scale(1 1) rotate(0) translate(4 207)">
<title>dependencies</title>
<polygon fill="white" stroke="transparent" points="-4,4 -4,-207 500,-207 500,4 -4,4"/>
<text text-anchor="start" x="227.01" y="-42.4" font-family="sans-serif" font-weight="bold" font-size="14.00">Legend</text>
<polygon fill="#ffffb3" stroke="transparent" points="14,-10 14,-30 34,-30 34,-10 14,-10"/>
<text text-anchor="start" x="37.63" y="-15.4" font-family="sans-serif" font-size="14.00"> &#160;Declarations</text>
<polygon fill="#8dd3c7" stroke="transparent" points="127,-10 127,-30 147,-30 147,-10 127,-10"/>
<text text-anchor="start" x="150.73" y="-15.4" font-family="sans-serif" font-size="14.00"> &#160;Module</text>
<polygon fill="#80b1d3" stroke="transparent" points="213,-10 213,-30 233,-30 233,-10 213,-10"/>
<text text-anchor="start" x="236.78" y="-15.4" font-family="sans-serif" font-size="14.00"> &#160;Bootstrap</text>
<polygon fill="#fdb462" stroke="transparent" points="310,-10 310,-30 330,-30 330,-10 310,-10"/>
<text text-anchor="start" x="333.67" y="-15.4" font-family="sans-serif" font-size="14.00"> &#160;Providers</text>
<polygon fill="#fb8072" stroke="transparent" points="406,-10 406,-30 426,-30 426,-10 406,-10"/>
<text text-anchor="start" x="429.73" y="-15.4" font-family="sans-serif" font-size="14.00"> &#160;Exports</text>
<g id="clust1" class="cluster">
<title>cluster_VocabularyTestFormModule</title>
<polygon fill="none" stroke="black" stroke-dasharray="1,5" points="132,-70 132,-195 364,-195 364,-70 132,-70"/>
</g>
<g id="clust3" class="cluster">
<title>cluster_VocabularyTestFormModule_imports</title>
<polygon fill="none" stroke="black" points="140,-78 140,-130 356,-130 356,-78 140,-78"/>
</g>
<!-- VocabularyFormRoutingModule -->
<g id="node1" class="node">
<title>VocabularyFormRoutingModule</title>
<polygon fill="#8dd3c7" stroke="black" points="348.3,-122 345.3,-126 324.3,-126 321.3,-122 147.7,-122 147.7,-86 348.3,-86 348.3,-122"/>
<text text-anchor="middle" x="248" y="-99.8" font-family="Times,serif" font-size="14.00">VocabularyFormRoutingModule</text>
</g>
<!-- VocabularyTestFormModule -->
<g id="node2" class="node">
<title>VocabularyTestFormModule</title>
<polygon fill="#8dd3c7" stroke="black" points="337.79,-187 334.79,-191 313.79,-191 310.79,-187 158.21,-187 158.21,-151 337.79,-151 337.79,-187"/>
<text text-anchor="middle" x="248" y="-164.8" font-family="Times,serif" font-size="14.00">VocabularyTestFormModule</text>
</g>
<!-- VocabularyFormRoutingModule&#45;&gt;VocabularyTestFormModule -->
<g id="edge1" class="edge">
<title>VocabularyFormRoutingModule&#45;&gt;VocabularyTestFormModule</title>
<path fill="none" stroke="black" d="M248,-122.11C248,-122.11 248,-140.99 248,-140.99"/>
<polygon fill="black" stroke="black" points="244.5,-140.99 248,-150.99 251.5,-140.99 244.5,-140.99"/>
</g>
</g>
</svg>
